<?xml version="1.0" encoding="utf-8"?>
<!-- Generator: Adobe Illustrator 16.0.0, SVG Export Plug-In . SVG Version: 6.00 Build 0)  -->
<!DOCTYPE svg PUBLIC "-//W3C//DTD SVG 1.1//EN" "http://www.w3.org/Graphics/SVG/1.1/DTD/svg11.dtd">
<svg version="1.1" id="Layer_1" xmlns="http://www.w3.org/2000/svg" xmlns:xlink="http://www.w3.org/1999/xlink" x="0px" y="0px"
	 width="198px" height="267.379px" viewBox="0 0 198 267.379" enable-background="new 0 0 198 267.379" xml:space="preserve">
<g opacity="0.4">
	<g opacity="0.5">
		<path fill="#58BBD6" d="M180.984,3.056c-41.961,3.696-72.925,24.632-90.964,54.896c-12.095,15.159-36.249,61.447-45.036,85.68
			c-15.948,30.135-29.827,65.982-40.707,98.304c-6.63,19.771,23.195,32.656,29.889,12.807c8.141-24.166,17.938-50.323,29.037-74.578
			c11.023,24.644,22.215,49.224,34.259,73.416c9.279,18.762,37.334,2.299,28.044-16.387c-12.382-24.916-23.855-50.193-35.203-75.599
			c0.156-0.493,0.336-0.957,0.491-1.436c1.886,0.543,3.982,0.712,6.267,0.271c17.33-3.256,34.633-6.512,51.989-9.742
			c7.392-1.422,10.235-9.511,9.071-15.999c-3.488-19.448-14.589-32.979-28.379-45.772c-2.027-6.979-8.863-13.129-16.449-19.256
			c15.363-24.811,40.435-38.302,73.078-41.17C203.042,27.015,197.485,1.609,180.984,3.056L180.984,3.056z M117.829,113.585
			c4.303,4.458,7.936,9.149,10.688,14.576c-8.387,1.564-16.773,3.142-25.161,4.717C107.593,126.081,112.465,119.633,117.829,113.585
			L117.829,113.585z M117.829,113.585"/>
	</g>
</g>
<path opacity="0.2" fill="#58BBD6" d="M194.139,70.72c0,12.329-9.99,22.304-22.306,22.304c-12.341,0-22.331-9.976-22.331-22.304
	s9.99-22.305,22.331-22.305C184.149,48.415,194.139,58.392,194.139,70.72L194.139,70.72z M194.139,70.72"/>
</svg>
