<?xml version="1.0" encoding="utf-8"?>
<!-- Generator: Adobe Illustrator 16.0.0, SVG Export Plug-In . SVG Version: 6.00 Build 0)  -->
<!DOCTYPE svg PUBLIC "-//W3C//DTD SVG 1.1//EN" "http://www.w3.org/Graphics/SVG/1.1/DTD/svg11.dtd">
<svg version="1.1" id="Layer_1" xmlns="http://www.w3.org/2000/svg" xmlns:xlink="http://www.w3.org/1999/xlink" x="0px" y="0px"
	 width="560px" height="855.692px" viewBox="0 0 560 855.692" enable-background="new 0 0 560 855.692" xml:space="preserve">
<g>
	<rect x="103.909" y="251.574" fill="#CC441F" width="144.108" height="36.875"/>
	<path d="M293.79,460.302"/>
	<path fill="#FFFFFF" stroke="#B8CCDD" stroke-miterlimit="10" d="M460.788,331.695c0,102.827-106.218,186.197-166.998,186.197
		c-64.62,0-166.997-83.37-166.997-186.197c0-102.829,74.756-222.664,166.997-222.664
		C386.033,109.032,460.788,228.866,460.788,331.695z"/>
	<path fill="#DD0E0E" d="M306.123,431.64c-3.932,0.104-13.412,8.385-13.412,8.385l-3.326-3.476
		c-2.68-2.174-5.784-4.909-10.104-4.909c-8.472-0.032-24.734,11.338-24.734,11.338c13.367,16.395,27.334,20.621,38.164,20.621
		c10.829,0,26.27-1.91,38.163-20.621C330.874,442.978,314.526,431.388,306.123,431.64z"/>
	<path fill="#50B8D4" d="M405.379,183.727c0,0-112.668,107.796-236.854,129.734c-1.638,19.463-1.638,18.582,4.455,57.091
		c3.944,24.893,34.158,65.629,46.909,99.322c18.175,48.019,19.54,113.084,1.62,156.587c-17.921,43.505-35.719,81.914-30.608,140.787
		c0,0,2.551,46.084,40.94,66.556c0,0-184.363-11.19-163.896-145.914c0,0,26.457-117.721,23.036-151.003
		c-3.418-33.273-38.283-110.026-53.64-166.335c-15.357-56.31,2.564-166.356,30.711-212.421
		c28.15-46.071,84.444-145.901,248.25-135.659c0,0,48.548,0.789,97.998,26.611c39.956,20.861,80.507,58.067,96.518,124.402
		c35.825,148.433,12.807,235.473-12.793,268.732c-25.596,33.262-33.262,76.767-30.71,117.723
		c2.55,40.956,50.418,78.881,52.981,109.594c0,0-44.646-1.561-59.507-1.006c-30.714,1.142-70.647-7.81-70.647-7.81
		s-21.487-42.88-22.448-87.028c-0.945-43.445,13.332-93.482,13.332-93.482s29.855-28.406,37.551-63.604
		c12.789-58.528,15.715-91.445,10.242-151.012C424.693,220.694,405.379,183.727,405.379,183.727z"/>
	<g>
		<defs>
			<path id="SVGID_1_" d="M447.506,293.24c-0.02-0.767-0.142-1.535-0.207-2.296c-0.238-2.986-0.954-3.625-4.554-3.87
				c-4.63-0.303-9.287-0.451-13.912-0.851c-6.637-0.581-13.254-1.432-19.897-1.954c-2.728-0.22-5.45-0.419-8.172-0.625
				c-4.785-0.342-9.584-0.671-14.37-0.994c-2.374-0.168-4.754-0.324-7.127-0.492c-5.889-0.416-11.61,0.11-17.453,0.692
				c-3.876,0.374-7.753,0.631-11.609,1.09c-5.328,0.645-10.694,1.458-15.892,2.398c-6.47,1.181-12.92,2.438-19.363,3.729
				c-7.481,1.503-15.041,1.941-22.646,1.98c-7.501-0.045-14.95-0.497-22.323-1.98c-6.443-1.29-12.887-2.548-19.368-3.729
				c-5.192-0.941-10.571-1.754-15.885-2.398c-3.851-0.458-7.74-0.716-11.604-1.09c-5.856-0.583-11.57-1.108-17.458-0.692
				c-2.381,0.168-4.754,0.324-7.128,0.492c-4.798,0.323-9.578,0.651-14.37,0.994c-2.729,0.206-5.45,0.406-8.178,0.625
				c-6.644,0.522-13.248,1.374-19.898,1.954c-4.618,0.4-9.274,0.548-13.905,0.851c-3.599,0.246-4.309,0.884-4.56,3.87
				c-0.064,0.761-0.181,1.529-0.206,2.296c-0.104,3.257-0.213,6.501-0.252,9.765c-0.02,1.38,0.368,2.625,2.232,3.083
				c4.56,1.122,6.946,3.767,7.701,7.675c0.909,4.683,1.979,9.339,2.94,14.022c1.51,7.327,3.586,14.525,6.986,21.407
				c2.908,5.908,6.83,11.287,13.66,14.454c15.692,7.263,21.907,7.132,14.242,5.154c8.313,2.135,16.917,3.07,25.65,2.657
				c24.4-1.161,46.497-10.855,57.939-29.599c4.611-7.559,8.158-15.511,11.435-23.548c4.135-10.146,20.775-10.436,25.032,0
				c3.271,8.037,6.817,15.989,11.429,23.548c11.436,18.744,33.539,28.438,57.933,29.599c8.732,0.413,17.337-0.522,25.651-2.657
				c4.914-1.271,9.731-3.064,14.253-5.154c6.817-3.167,10.733-8.546,13.654-14.454c3.398-6.882,5.477-14.08,6.973-21.407
				c0.967-4.683,2.044-9.339,2.953-14.022c0.755-3.908,3.135-6.553,7.695-7.675c1.864-0.458,2.251-1.703,2.238-3.083
				C447.718,299.741,447.615,296.497,447.506,293.24z M147.39,300.173c-2.741,0-5.037-0.922-5.643-2.167h11.294
				C152.421,299.251,150.138,300.173,147.39,300.173z M141.747,296.703c0.606-1.245,2.902-2.161,5.643-2.161
				c2.748,0,5.032,0.916,5.651,2.161H141.747z M267.014,328.946c-1.806,5.792-4.359,11.345-8.088,16.454
				c-9.312,12.809-25.851,20.13-43.258,21.529c-5.985,0.484-12.384,0.581-18.351,0c-4.172-0.419-8.307-1.045-12.138-2.561
				c-1.568-0.619-3.187-1.109-4.773-1.696c-1.342-0.497-2.613-1.193-3.928-1.767c-7.766-3.328-12.307-8.842-14.467-15.783
				c-3.772-12.139-5.083-24.477-3.283-36.976c0.361-2.478,1.315-4.928,2.244-7.327c1.618-4.193,5.664-6.282,10.146-7.92
				c6.772-2.464,13.932-3.715,21.214-4.508c11.074-1.187,22.173-1.477,33.293-0.548c10.681,0.89,21.116,2.645,30.94,6.521
				c2.018,0.8,3.908,1.819,5.643,2.999c0.749,0.51,1.542,0.994,2.193,1.613c0.8,0.754,1.29,1.696,1.941,2.528
				c0.626,0.807,1.329,1.58,1.896,2.425c1.219,1.78,1.381,3.805,1.908,5.753C270.568,316.22,268.994,322.6,267.014,328.946z
				 M422.919,345.122c-2.167,6.94-6.701,12.455-14.473,15.783c-1.311,0.574-2.581,1.271-3.929,1.767
				c-1.586,0.587-3.206,1.078-4.772,1.696c-3.825,1.516-7.96,2.142-12.132,2.561c-5.974,0.581-12.377,0.484-18.343,0
				c-17.416-1.399-33.959-8.721-43.273-21.529c-3.727-5.108-6.281-10.662-8.088-16.454c-1.974-6.346-3.554-12.726-3.127-19.266
				c0.528-1.948,0.684-3.973,1.902-5.753c0.58-0.845,1.271-1.618,1.902-2.425c0.646-0.832,1.135-1.774,1.941-2.528
				c0.651-0.619,1.444-1.103,2.192-1.613c1.735-1.18,3.626-2.199,5.644-2.999c9.811-3.876,20.26-5.63,30.94-6.521
				c11.112-0.929,22.22-0.638,33.281,0.548c7.295,0.793,14.441,2.044,21.232,4.508c4.476,1.638,8.514,3.728,10.14,7.92
				c0.928,2.399,1.876,4.85,2.237,7.327C428.002,320.645,426.691,332.983,422.919,345.122z M437.534,300.173
				c-2.747,0-5.037-0.922-5.65-2.167h11.294C442.565,299.251,440.281,300.173,437.534,300.173z M431.884,296.703
				c0.613-1.245,2.903-2.161,5.65-2.161s5.031,0.916,5.644,2.161H431.884z"/>
		</defs>
		<clipPath id="SVGID_2_">
			<use xlink:href="#SVGID_1_"  overflow="visible"/>
		</clipPath>
		
			<rect x="-721.5" y="-510.5" clip-path="url(#SVGID_2_)" fill="#B8CCDD" stroke="#000000" stroke-miterlimit="10" width="2113" height="1585"/>
		<g clip-path="url(#SVGID_2_)">
		</g>
		<polygon clip-path="url(#SVGID_2_)" fill="#B8CCDD" points="90.612,281.706 93.089,285.971 102.032,292.44 144.139,302.934 
			168.078,305.785 201.239,306.336 260.364,305.746 303.604,309.706 304.287,309.771 278.019,297.945 258.752,291.892 
			245.137,289.551 210.598,287.145 174.685,286.799 132.252,287.299 100.468,285.235 		"/>
		<polygon clip-path="url(#SVGID_2_)" fill="#B8CCDD" points="304.577,359.725 308.151,363.716 321.496,369.29 337.665,372.918 
			357.131,376 382.73,376 402.544,376 419.604,371.576 414.372,367.578 391.256,364.272 356.859,361.998 334.015,361.137 		"/>
		<path clip-path="url(#SVGID_2_)" fill="#B8CCDD" d="M307.609,316.914c-19.407-0.474-21.609,3.46-21.609,3.46l3.177,4.825
			L307.052,330h19.539l2.612-5.404l-6.74-5.118L307.609,316.914z"/>
		<path clip-path="url(#SVGID_2_)" fill="#B8CCDD" d="M330.726,300.402c-19.407-0.474-21.61,3.46-21.61,3.46l3.176,4.58L330.167,313
			h19.54l2.612-5.16l-6.74-4.996L330.726,300.402z"/>
		<polygon clip-path="url(#SVGID_2_)" fill="#B8CCDD" points="162.579,313.492 166.152,317.485 179.498,323.057 195.667,326.802 
			215.133,330 240.731,330 260.545,330 277.604,325.46 272.374,321.404 249.258,318.068 214.861,315.781 192.017,314.912 		"/>
		<polygon clip-path="url(#SVGID_2_)" fill="#B8CCDD" points="381.214,291.614 383.691,295.878 392.634,302.347 434.741,312.841 
			458.681,315.691 491.841,316.243 550.967,315.653 594.207,319.613 594.891,319.678 568.619,307.852 549.354,301.799 
			535.739,299.458 501.2,297.052 465.288,296.707 422.855,297.207 391.07,295.142 		"/>
		<path clip-path="url(#SVGID_2_)" fill="#B8CCDD" d="M142.495,307.007c-19.408-0.474-21.61,3.46-21.61,3.46l3.177,4.778
			L141.937,320h19.54l2.612-5.357l-6.739-5.095L142.495,307.007z"/>
		<path clip-path="url(#SVGID_2_)" fill="#B8CCDD" d="M221.75,359.843c-19.408-0.474-21.61,3.46-21.61,3.46l3.177,4.86L221.192,373
			h19.539l2.612-5.439l-6.741-5.134L221.75,359.843z"/>
		<path clip-path="url(#SVGID_2_)" fill="#B8CCDD" d="M254.772,340.03c-19.408-0.475-21.61,3.46-21.61,3.46l3.177,4.767L254.215,353
			h19.54l2.611-5.346l-6.739-5.089L254.772,340.03z"/>
		<path clip-path="url(#SVGID_2_)" fill="#B8CCDD" d="M172.215,359.843c-19.408-0.474-21.61,3.46-21.61,3.46l3.177,4.86L171.658,373
			h19.54l2.612-5.439l-6.739-5.134L172.215,359.843z"/>
		<path clip-path="url(#SVGID_2_)" fill="#B8CCDD" d="M406.678,330.123c-19.407-0.475-21.609,3.46-21.609,3.46l3.177,4.72
			L406.12,343h19.54l2.611-5.3l-6.739-5.065L406.678,330.123z"/>
		<path clip-path="url(#SVGID_2_)" fill="#B8CCDD" d="M443.003,316.914c-19.406-0.474-21.609,3.46-21.609,3.46l3.176,4.825
			L442.445,330h19.54l2.612-5.404l-6.74-5.118L443.003,316.914z"/>
		<path clip-path="url(#SVGID_2_)" fill="#B8CCDD" d="M330.726,333.425c-19.407-0.474-21.61,3.46-21.61,3.46l3.176,5.068
			L330.167,347h19.54l2.612-5.647l-6.74-5.24L330.726,333.425z"/>
		<path clip-path="url(#SVGID_2_)" fill="#B8CCDD" d="M165.61,326.82c-19.407-0.474-21.61,3.46-21.61,3.46l3.177,4.372L165.053,339
			h19.54l2.612-4.95l-6.739-4.891L165.61,326.82z"/>
		<polygon clip-path="url(#SVGID_2_)" fill="#B8CCDD" points="163.263,265.194 165.74,269.459 174.683,275.927 216.79,286.422 
			240.729,289.273 273.891,289.824 333.016,289.234 376.255,293.195 376.938,293.259 350.668,281.433 331.403,275.38 
			317.787,273.039 283.249,270.633 247.336,270.288 204.903,270.786 173.118,268.722 		"/>
	</g>
	<polygon fill="#50B8D4" points="264.254,279.816 247.445,289.602 174.228,308.266 164.779,318.723 170.429,354.345 
		172.189,365.552 167.778,368.894 126.793,298.127 140.653,270.011 	"/>
</g>
</svg>
